<svg xmlns="http://www.w3.org/2000/svg" viewBox="0 0 1600 900" role="img" aria-label="Calm sea at sunrise">
  <defs>
    <linearGradient id="sky" x1="0" y1="0" x2="0" y2="1">
      <stop offset="0%" stop-color="#f4f8f2" />
      <stop offset="35%" stop-color="#dbe9cf" />
      <stop offset="100%" stop-color="#adc28e" />
    </linearGradient>
    <linearGradient id="sea" x1="0" y1="0" x2="0" y2="1">
      <stop offset="0%" stop-color="#8ca26b" />
      <stop offset="100%" stop-color="#647c45" />
    </linearGradient>
    <radialGradient id="sun" cx="50%" cy="28%" r="22%">
      <stop offset="0%" stop-color="#fff9df" stop-opacity="0.95" />
      <stop offset="100%" stop-color="#fff9df" stop-opacity="0" />
    </radialGradient>
  </defs>

  <rect width="1600" height="900" fill="url(#sky)" />
  <ellipse cx="800" cy="260" rx="250" ry="130" fill="url(#sun)" />

  <rect y="430" width="1600" height="470" fill="url(#sea)" />

  <g opacity="0.35" fill="none" stroke="#f6f9ed" stroke-linecap="round">
    <path d="M80 510c70 18 140 18 210 0s140-18 210 0 140 18 210 0 140-18 210 0 140 18 210 0 140-18 210 0" stroke-width="6" />
    <path d="M30 575c85 20 170 20 255 0s170-20 255 0 170 20 255 0 170-20 255 0 170 20 255 0" stroke-width="5" />
    <path d="M100 650c65 16 130 16 195 0s130-16 195 0 130 16 195 0 130-16 195 0 130 16 195 0 130-16 195 0" stroke-width="4" />
    <path d="M40 730c95 22 190 22 285 0s190-22 285 0 190 22 285 0 190-22 285 0 190 22 285 0" stroke-width="3" />
  </g>

  <g opacity="0.55" fill="#f1f6e6">
    <ellipse cx="780" cy="466" rx="80" ry="10" />
    <ellipse cx="800" cy="500" rx="120" ry="12" />
    <ellipse cx="800" cy="540" rx="170" ry="14" />
    <ellipse cx="805" cy="592" rx="235" ry="16" />
  </g>

  <g transform="translate(1410 535)">
    <ellipse cx="0" cy="52" rx="72" ry="10" fill="#f1f6e6" opacity="0.28" />
    <path d="M-86 32h172l-24 26h-122z" fill="#3f4e2a" opacity="0.9" />
    <rect x="-2" y="-24" width="4" height="56" fill="#2f3c1f" />
    <path d="M2-20 2 26 42 18Z" fill="#eef4de" opacity="0.88" />
    <path d="M-2-16-2 22-36 14Z" fill="#dbe8c7" opacity="0.75" />
  </g>
</svg>
